<?xml version="1.0" encoding="utf-8"?>
<!DOCTYPE svg PUBLIC "-//W3C//DTD SVG 1.0//EN" "http://www.w3.org/TR/2001/REC-SVG-20010904/DTD/svg10.dtd">
<svg version="1.0" xmlns="http://www.w3.org/2000/svg" width="483px" height="520px" viewBox="0 0 483 520" preserveAspectRatio="xMidYMid meet">
 <g fill="#f1edea">
  <path d="M252.2 415.8 l0.2 -6.3 0.3 5.3 c0.2 2.8 0.8 5.2 1.4 5.2 0.5 0 1 -2.4 1.1 -5.2 0.1 -4.6 0.2 -4.8 0.5 -1.4 0.6 5.1 -0.4 8.6 -2.2 8.6 -1.2 0 -1.5 -1.3 -1.3 -6.2z"/>
  <path d="M187.8 397.1 c1.2 -0.7 6.2 -0.4 6.2 0.5 0 0.2 -1.7 0.4 -3.7 0.4 -2.4 0 -3.3 -0.3 -2.5 -0.9z"/>
  <path d="M291 397.3 c0.8 -0.3 2.1 -1.1 2.9 -1.7 1.1 -0.8 1.3 -0.8 0.8 0.1 -0.5 0.8 0.3 1.3 2.5 1.6 2 0.2 1.1 0.4 -2.2 0.5 -3 0 -4.8 -0.2 -4 -0.5z"/>
  <path d="M255.2 390.4 c-0.2 -5.8 -0.1 -6.2 2.2 -6.6 4.8 -1 5.4 2.3 0.6 3.4 -0.9 0.2 -1.7 2 -2.1 4.8 -0.6 4.4 -0.6 4.3 -0.7 -1.6z"/>
  <path d="M277 394.5 c0.9 -1.1 1.6 -1.2 3 -0.2 1.1 0.6 1.7 1.3 1.5 1.6 -0.3 0.2 -1.1 -0.2 -2 -0.9 -1 -0.8 -1.5 -0.9 -1.5 -0.1 0 0.6 -0.5 1.1 -1.1 1.1 -0.8 0 -0.8 -0.4 0.1 -1.5z"/>
  <path d="M252.3 389 c0 -3 0.2 -4.3 0.4 -2.7 0.2 1.5 0.2 3.9 0 5.5 -0.2 1.5 -0.4 0.2 -0.4 -2.8z"/>
  <path d="M183 380 c0 -1.5 0.7 -2 2.4 -2 1.8 0 2.5 -0.6 2.8 -2.2 0.2 -1.8 1.1 -2.4 3.6 -2.6 2.4 -0.2 3.2 0.1 3.2 1.2 0 0.9 -0.8 1.6 -1.9 1.6 -1 0 -3.3 1.4 -5.1 3 -3.8 3.5 -5 3.8 -5 1z"/>
  <path d="M289.5 376.2 c-2.7 -1.4 -2.8 -1.6 -1 -2.2 2.7 -1 4 -0.3 4.2 2 0.1 1.1 0.1 2 0 1.9 -0.1 -0.1 -1.5 -0.8 -3.2 -1.7z"/>
  <path d="M156 376.1 c0 -0.3 1.6 -1.5 3.5 -2.5 1.9 -1.1 3.5 -2.3 3.5 -2.8 0 -0.4 0.9 -0.8 2 -0.8 1.1 0 2 0.5 2 1 0 0.6 -0.4 1 -1 1 -0.5 0 -1 1.1 -1 2.4 0 2.2 -0.4 2.4 -4.5 2.4 -2.5 0 -4.5 -0.3 -4.5 -0.7z"/>
  <path d="M321 374.3 c0 -1.6 0.4 -2.3 0.8 -1.7 0.4 0.6 2 1.4 3.6 1.8 2.3 0.6 2.7 0.9 1.5 1.7 -0.7 0.5 -2.4 0.9 -3.6 0.9 -1.8 0 -2.3 -0.6 -2.3 -2.7z"/>
  <path d="M316 371 c0 -0.5 0.9 -1 2.1 -1 1.1 0 1.7 0.5 1.4 1 -0.3 0.6 -1.3 1 -2.1 1 -0.8 0 -1.4 -0.4 -1.4 -1z"/>
  <path d="M277.2 368.9 c-1.5 -0.5 -2 -1.3 -1.6 -2.1 0.6 -0.9 0.9 -0.9 1.2 0 0.2 0.7 1 1.2 1.8 1.2 0.8 0 1.4 0.5 1.4 1 0 0.6 -0.1 1 -0.2 0.9 -0.2 0 -1.3 -0.4 -2.6 -1z"/>
  <path d="M198.8 368.3 c1.2 -0.2 3.2 -0.2 4.5 0 1.2 0.2 0.2 0.4 -2.3 0.4 -2.5 0 -3.5 -0.2 -2.2 -0.4z"/>
  <path d="M338.5 368.4 c-1.5 -0.6 -0.6 -10.4 0.9 -9.8 1.1 0.4 1.7 10.5 0.6 10.3 -0.3 0 -0.9 -0.2 -1.5 -0.5z"/>
  <path d="M109 349.2 c0 -0.4 1.4 -1.3 3 -1.9 2.7 -1 3 -0.9 3 0.8 0 1.4 -0.7 1.9 -3 1.9 -1.6 0 -3 -0.4 -3 -0.8z"/>
  <path d="M316.2 347 c0 -1.9 0.2 -2.7 0.5 -1.7 0.2 0.9 0.2 2.5 0 3.5 -0.3 0.9 -0.5 0.1 -0.5 -1.8z"/>
  <path d="M369 348.2 c0 -1 -0.6 -2.4 -1.2 -3.1 -0.7 -0.8 0.6 -0.1 3 1.4 2.3 1.5 4.2 2.9 4.2 3.1 0 0.2 -1.3 0.4 -3 0.4 -2.2 0 -3 -0.5 -3 -1.8z"/>
  <path d="M390.3 339.3 c-0.1 -2.7 0.2 -3.3 1.8 -3.3 2.6 0 2.7 5.6 0.2 6.2 -1.4 0.4 -1.8 -0.2 -2 -2.9z"/>
  <path d="M91.6 339.8 c0.4 -1.3 0.7 -3.9 0.7 -5.9 0 -2.4 0.4 -3.6 1.3 -3.6 0.8 0 1.4 0.4 1.4 0.8 0 0.5 1.1 0.4 2.5 -0.1 2.3 -0.9 2.2 -0.6 -1 2.6 -2.1 2.1 -3.5 4.4 -3.5 5.9 0 1.4 -0.5 2.5 -1.1 2.5 -0.6 0 -0.8 -0.9 -0.3 -2.2z"/>
  <path d="M143.3 338 c0 -2.5 0.2 -3.5 0.4 -2.2 0.2 1.2 0.2 3.2 0 4.5 -0.2 1.2 -0.4 0.2 -0.4 -2.3z"/>
  <path d="M338.7 341.3 c-0.7 -0.7 -1 -13.3 -0.3 -13.3 2.5 0 3.1 1.5 2.8 7.5 -0.3 6.1 -0.9 7.4 -2.5 5.8z"/>
  <path d="M357.5 341.1 c0.3 -0.5 -0.1 -1.2 -0.7 -1.5 -0.7 -0.3 -0.2 -0.3 1.2 0 3.7 0.9 4.3 1.9 1.4 2.2 -1.4 0.1 -2.3 -0.2 -1.9 -0.7z"/>
  <path d="M252.3 335.5 c0 -3.3 0.2 -4.5 0.4 -2.7 0.2 1.8 0.2 4.5 0 6 -0.2 1.5 -0.4 0 -0.4 -3.3z"/>
  <path d="M255.3 335 c0 -3 0.2 -4.3 0.4 -2.7 0.2 1.5 0.2 3.9 0 5.5 -0.2 1.5 -0.4 0.2 -0.4 -2.8z"/>
  <path d="M388.3 333 c-0.3 -1.1 -0.8 -1.8 -1.2 -1.6 -0.4 0.3 -1.3 0.1 -2.1 -0.5 -1.1 -0.6 -0.9 -0.9 1.1 -0.9 2.1 0 2.8 0.6 3.1 2.5 0.6 3 -0.2 3.4 -0.9 0.5z"/>
  <path d="M316.8 330 c-0.4 -1.4 -0.8 -5.1 -0.8 -8.2 0 -4.9 -0.3 -5.8 -1.8 -5.8 -0.9 0 -2.3 -0.9 -3 -2.1 -0.9 -1.4 -2 -1.9 -3.3 -1.6 -1 0.3 -1.9 0.1 -1.9 -0.3 0 -0.5 -0.3 -1.7 -0.6 -2.7 -0.3 -1 -0.2 -1.4 0.3 -0.8 0.4 0.6 2.8 2.1 5.3 3.4 7 3.7 7.1 3.9 6.8 12.7 -0.2 5.4 -0.5 7.1 -1 5.4z"/>
  <path d="M380.5 328.7 c-1 -0.7 -2.5 -1.8 -3.3 -2.4 -1.1 -1.1 -0.9 -1.3 1 -1.3 1.5 0 2.7 0.9 3.5 2.5 0.6 1.4 1 2.5 1 2.4 -0.1 0 -1.1 -0.6 -2.2 -1.2z"/>
  <path d="M103 326.5 c0 -0.8 0.6 -1.5 1.4 -1.5 0.8 0 2.1 -0.3 3 -0.6 2.7 -1 1.8 1.2 -0.9 2.4 -3.3 1.5 -3.5 1.5 -3.5 -0.3z"/>
  <path d="M108.9 323.9 c-0.8 -3.7 -0.7 -3.9 2.6 -3.9 3.7 0 5.5 1.5 2.7 2.3 -0.9 0.2 -2.5 0.8 -3.4 1.2 -1 0.4 -1.8 0.6 -1.9 0.4z"/>
  <path d="M369.7 322.4 c-1.5 -0.8 -2.7 -1.6 -2.7 -1.7 0 -0.2 1.3 -0.4 2.9 -0.5 1.8 -0.1 3.1 0.3 3.4 1.3 0.9 2.2 -0.5 2.5 -3.6 0.9z"/>
  <path d="M117 315 c0 -0.5 2 -1 4.5 -1 2.5 0 4.5 0.5 4.5 1 0 0.6 -2 1 -4.5 1 -2.5 0 -4.5 -0.4 -4.5 -1z"/>
  <path d="M255.3 310 c0 -3.6 0.2 -5 0.4 -3.2 0.2 1.7 0.2 4.7 0 6.5 -0.2 1.7 -0.4 0.3 -0.4 -3.3z"/>
  <path d="M357.6 315.2 c-0.3 -0.5 1.7 -0.9 4.4 -0.9 2.8 -0.1 5.2 0.3 5.5 0.8 0.4 0.5 -1.6 0.9 -4.4 0.9 -2.7 0 -5.2 -0.4 -5.5 -0.8z"/>
  <path d="M252.3 309 c0 -3 0.2 -4.3 0.4 -2.7 0.2 1.5 0.2 3.9 0 5.5 -0.2 1.5 -0.4 0.2 -0.4 -2.8z"/>
  <path d="M352 312 c-1.4 -1 -2.3 -2 -2 -2.2 0.3 -0.2 2.5 -1.7 5 -3.3 2.5 -1.6 5.1 -3.3 5.8 -3.8 0.9 -0.7 1.2 -0.1 1.2 2.2 0 2.6 -0.4 3.1 -2.4 3.1 -1.8 0 -2.5 0.7 -2.9 3 -0.7 3.5 -1.3 3.6 -4.7 1z"/>
  <path d="M174 311.8 c0 -0.7 5.2 -3.8 6.5 -3.8 0.3 0 0.5 1.1 0.5 2.5 0 2.3 -0.4 2.5 -3.5 2.3 -1.9 -0.1 -3.5 -0.6 -3.5 -1z"/>
  <path d="M119 306.1 c0 -2.9 2.9 -3.3 6.6 -1 4 2.4 4.4 3.2 0.9 1.9 -1.5 -0.6 -2.6 -0.6 -3 0 -1.1 1.8 -4.5 1.1 -4.5 -0.9z"/>
  <path d="M113.3 300.6 c0.3 -0.7 0.1 -1.9 -0.4 -2.5 -0.6 -0.8 -0.5 -0.8 0.3 -0.1 1.5 1.3 1.9 4 0.6 4 -0.6 0 -0.8 -0.6 -0.5 -1.4z"/>
  <path d="M369.1 300.6 c-1 -1.2 -0.6 -1.8 1.8 -3.2 1.7 -1 3.1 -2.1 3.1 -2.5 0 -0.4 0.9 -0.9 2 -1.2 1.5 -0.4 2 0 2 1.5 0 1 -0.3 1.7 -0.7 1.5 -0.5 -0.3 -1.8 -0.1 -3.1 0.4 -1.8 0.7 -2.2 1.4 -1.7 2.9 0.8 2.4 -1.6 2.8 -3.4 0.6z"/>
  <path d="M156 297.1 c0 -2.5 1.4 -4.1 3.6 -4.1 1.6 0 2.2 0.4 1.8 1.4 -0.6 1.6 -5.4 4 -5.4 2.7z"/>
  <path d="M323.5 295.4 l-3 -2.4 3.1 0 c2.1 0 3.4 0.6 3.8 1.7 1.1 2.9 -0.8 3.2 -3.9 0.7z"/>
  <path d="M103.5 296 c0.3 -0.5 0.1 -2 -0.6 -3.2 -1.2 -2.2 -1.1 -2.2 0.8 -0.5 1.1 0.9 2.4 1.7 3 1.7 0.6 0 1.6 0.7 2.3 1.5 1.1 1.3 0.7 1.5 -2.4 1.5 -2.2 0 -3.5 -0.4 -3.1 -1z"/>
  <path d="M272.5 292.1 c-0.3 -0.5 -1.4 -0.7 -2.5 -0.4 -1.1 0.3 -2 0 -2 -0.6 0 -1.3 4.9 -1.5 6.8 -0.2 1.1 0.7 1.1 0.9 -0.2 1.4 -0.8 0.3 -1.8 0.2 -2.1 -0.2z"/>
  <path d="M316.7 291.8 c-1.6 -1.2 -1.5 -1.3 0.6 -1.4 1.4 -0.1 2.4 0.4 2.4 1.2 0 1.7 -0.8 1.8 -3 0.2z"/>
  <path d="M210.4 290.7 c1.7 -1.3 7.6 -1.1 7.6 0.2 0 0.3 -2.1 0.7 -4.7 0.8 -4 0.2 -4.4 0.1 -2.9 -1z"/>
  <path d="M171 288.1 c0 -0.6 0.4 -1.2 0.9 -1.5 0.5 -0.3 0.7 -1.5 0.4 -2.6 -0.6 -2.3 0 -2.5 2.9 -0.9 1.4 0.8 2.3 0.8 3.1 0 0.6 -0.6 2 -1.1 3.1 -1.1 1.3 0 0.2 1.1 -3.4 3.5 -5.8 3.6 -7 4.1 -7 2.6z"/>
  <path d="M252.2 283.3 c-0.1 -2.9 0 -5.3 0.3 -5.3 0.2 0 2.4 1.3 4.9 2.8 4.7 3 4.8 4.6 0.4 5.4 -2.4 0.5 -2.8 0.2 -2.8 -1.8 0 -3.6 -1.8 -2.9 -2.3 0.9 -0.3 2.2 -0.4 1.5 -0.5 -2z"/>
  <path d="M305.3 285.4 c-2.8 -1.7 -4 -3 -3.6 -4 0.4 -1.2 0.8 -1.2 2.1 -0.2 0.8 0.7 2.2 1.3 3 1.3 0.9 0 1.9 1.2 2.3 2.8 0.4 1.5 0.7 2.7 0.6 2.6 -0.1 -0.1 -2.1 -1.2 -4.4 -2.5z"/>
  <path d="M223.5 286.2 c-1.7 -1.7 0 -3.2 7.8 -7 0.4 -0.2 0.7 0.8 0.7 2.2 0 1.6 -0.6 2.6 -1.5 2.6 -0.8 0 -1.5 0.4 -1.5 0.9 0 1 -4.7 2.1 -5.5 1.3z"/>
  <path d="M385 283.5 c0 -1.3 -0.4 -3.5 -0.9 -4.8 -0.9 -2.4 -0.9 -2.4 1.8 -1.4 2.4 0.9 2.8 1.6 2.7 4.7 0 2.7 -0.5 3.6 -1.8 3.7 -1.3 0.1 -1.8 -0.5 -1.8 -2.2z"/>
  <path d="M123.1 280 l-4.4 -3 4.5 0 c4.3 0 4.5 0.1 4.6 3 0 1.7 0 3 -0.1 3 -0.1 0 -2.2 -1.4 -4.6 -3z"/>
  <path d="M356 279.5 c0 -2.2 0.4 -2.5 3.6 -2.5 3.1 0 3.5 0.2 2.4 1.5 -0.7 0.8 -1.9 1.5 -2.6 1.5 -0.8 0 -1.4 0.5 -1.4 1 0 0.6 -0.4 1 -1 1 -0.5 0 -1 -1.1 -1 -2.5z"/>
  <path d="M193 274.6 c0 -0.8 0.5 -1.8 1 -2.1 0.6 -0.3 1 0.3 1 1.4 0 1.2 -0.4 2.1 -1 2.1 -0.5 0 -1 -0.6 -1 -1.4z"/>
  <path d="M289.5 275.1 c-0.8 -1.4 0.3 -3.1 2 -3.1 1.5 0 1.4 3.2 -0.2 3.7 -0.6 0.2 -1.4 -0.1 -1.8 -0.6z"/>
  <path d="M209 265.5 c0 -0.9 0.9 -1.5 2.1 -1.5 1.8 0 1.9 0.2 0.9 1.5 -0.7 0.8 -1.6 1.5 -2.1 1.5 -0.5 0 -0.9 -0.7 -0.9 -1.5z"/>
  <path d="M204 252.1 c0 -1.8 0.2 -1.9 3 -0.5 1.7 0.9 3 1.6 3 1.8 0 0.1 -1.3 0.3 -3 0.4 -2.4 0.2 -3 -0.2 -3 -1.7z"/>
  <path d="M276 253.4 c0 -0.9 2.4 -3 4.3 -3.7 1.3 -0.5 1.7 -0.1 1.7 1.8 0 2.1 -0.5 2.5 -3 2.5 -1.6 0 -3 -0.3 -3 -0.6z"/>
  <path d="M103 248 c0 -1.3 1.1 -1.3 3 0 1.2 0.8 1.1 1 -0.7 1 -1.3 0 -2.3 -0.4 -2.3 -1z"/>
  <path d="M110.5 247.6 c2.4 -1.9 4.8 -2.1 4.3 -0.3 -0.3 0.6 -1.8 1.3 -3.4 1.5 -2.8 0.3 -2.8 0.3 -0.9 -1.2z"/>
  <path d="M193.9 249 c-0.6 -1.6 -0.5 -5 0.2 -5 1.3 0 1.7 1.4 0.8 3.5 -0.4 1.1 -0.8 1.8 -1 1.5z"/>
  <path d="M288.7 246.9 c-0.4 -1.5 0.1 -2.3 2.1 -3.2 1.5 -0.6 3.9 -1.9 5.4 -3 l2.8 -1.8 -0.9 2.3 c-0.5 1.3 -1.4 2.2 -2.1 2 -2 -0.5 -3.8 1.7 -3.3 3.8 0.4 1.5 0 2 -1.5 2 -1.1 0 -2.2 -0.8 -2.5 -2.1z"/>
  <path d="M370 248 c-2.4 -1.5 -0.7 -1.8 2.5 -0.4 2.3 1 2.5 1.3 1 1.3 -1.1 0.1 -2.7 -0.3 -3.5 -0.9z"/>
  <path d="M377 248 c4.2 -2.9 4.8 -3 4.3 -1 -0.4 1.4 -1.4 2 -3.2 2 -2.1 0 -2.3 -0.2 -1.1 -1z"/>
  <path d="M183 241.5 c0 -1.4 0.1 -2.5 0.3 -2.5 0.5 0 8.7 4 8.7 4.3 0 0.1 -2 0.3 -4.5 0.5 -4.2 0.2 -4.5 0.1 -4.5 -2.3z"/>
  <path d="M226.8 239.5 c-2.7 -1.7 -4.5 -3.5 -4.1 -3.8 0.3 -0.4 2.4 -0.7 4.5 -0.7 4.2 0 5.2 1.2 4.6 5.3 l-0.3 2.5 -4.7 -3.3z"/>
  <path d="M352.5 239.1 c-0.3 -0.5 -1.4 -0.8 -2.5 -0.6 -1.1 0.2 -2 0 -2 -0.6 0 -1.2 5.7 -1.2 6.5 0 0.3 0.5 0.1 1.2 -0.4 1.5 -0.5 0.4 -1.2 0.2 -1.6 -0.3z"/>
  <path d="M178.8 236.5 c-0.2 -0.3 -2.3 -0.6 -4.6 -0.7 -2.3 -0.1 -3.9 -0.5 -3.5 -1.1 0.3 -0.5 -0.1 -1.3 -0.8 -1.8 -0.7 -0.4 -1 -1.1 -0.6 -1.5 0.4 -0.4 2.6 0.3 5 1.6 4.2 2.3 6.6 4 5.6 4 -0.3 0 -0.8 -0.2 -1.1 -0.5z"/>
  <path d="M255.1 229.8 c0.1 -6.8 0.6 -6.1 1.1 1.5 0.2 2.6 0 4.7 -0.4 4.7 -0.5 0 -0.7 -2.8 -0.7 -6.2z"/>
  <path d="M97 234.4 c0 -0.6 0.3 -1.4 0.8 -1.8 0.4 -0.4 0.7 -1.3 0.7 -1.8 0 -0.6 0.6 -1.3 1.3 -1.5 0.6 -0.3 1.2 -0.1 1.2 0.4 -0.1 1.3 -4 5.9 -4 4.7z"/>
  <path d="M252.3 229.5 c0 -3.3 0.2 -4.5 0.4 -2.7 0.2 1.8 0.2 4.5 0 6 -0.2 1.5 -0.4 0 -0.4 -3.3z"/>
  <path d="M337.8 232.3 c0 -0.5 -0.1 -1.5 -0.2 -2.3 -0.1 -1 -1.4 -1.6 -3.8 -1.8 -3.2 -0.3 -5.8 -2.6 -4.4 -3.9 0.5 -0.5 7.8 2.7 8.6 3.7 0.3 0.4 1.3 0.9 2.2 1.3 1.1 0.4 1.5 1.2 1.2 2.2 -0.6 1.5 -3.3 2.1 -3.6 0.8z"/>
  <path d="M382.7 231.6 c-0.4 -1 -0.5 -2.1 -0.2 -2.4 0.9 -0.9 1.7 0.6 1.3 2.5 -0.3 1.7 -0.4 1.7 -1.1 -0.1z"/>
  <path d="M205.3 227.6 c-1.3 -0.6 -2.3 -1.4 -2.3 -1.8 0 -0.5 -0.6 -0.8 -1.4 -0.8 -0.8 0 -1.7 -0.4 -2.1 -0.9 -0.3 -0.6 0.6 -0.7 2.2 -0.2 1.6 0.4 3.6 0.7 4.6 0.5 1.2 -0.1 1.7 0.5 1.7 2.2 0 1.3 -0.1 2.3 -0.2 2.3 -0.2 -0.1 -1.3 -0.6 -2.5 -1.3z"/>
  <path d="M276.4 226.5 c0.1 -2.5 1.9 -3.2 4.4 -1.6 1 0.6 0.7 1.2 -1.2 2.4 -3.3 2.2 -3.4 2.2 -3.2 -0.8z"/>
  <path d="M146.8 226.9 c0.4 -0.3 2.3 -1.5 4.3 -2.7 l3.5 -2.1 0 2.5 c0 1.7 -0.7 2.6 -2 2.9 -2.8 0.7 -6.8 0.2 -5.8 -0.6z"/>
  <path d="M368.6 222.8 c-1.7 -0.9 -1.6 -1 0.1 -2.4 2.5 -1.9 4.3 -1.7 4.3 0.5 0 2.3 -2 3.2 -4.4 1.9z"/>
  <path d="M191 218.9 c-1.4 -1 -2.8 -1.9 -3.2 -1.9 -0.4 0 -2.2 -0.9 -4 -2 l-3.2 -1.9 5 0.3 c2.7 0.2 5.2 0.4 5.7 0.5 0.4 0 0.7 1 0.7 2.1 0 1 0.7 2.3 1.6 2.8 0.9 0.5 1.2 1.2 0.8 1.5 -0.5 0.3 -2.1 -0.3 -3.4 -1.4z"/>
  <path d="M294.5 217 c0.9 -1 1.4 -2.4 1 -2.9 -0.4 -0.7 0.4 -1.1 1.9 -1.1 4.1 0 3.9 1.8 -0.5 3.9 -4 2 -4.1 2 -2.4 0.1z"/>
  <path d="M128.2 213 c0.7 -1.1 1.6 -2 2 -2 1.5 0 0.8 1.5 -1.2 2.8 -1.9 1.2 -2 1.1 -0.8 -0.8z"/>
  <path d="M351.2 211.8 c-1.9 -1.9 -1.4 -2.9 0.8 -1.6 2 1.3 2.7 2.8 1.2 2.8 -0.4 0 -1.3 -0.5 -2 -1.2z"/>
  <path d="M309.8 207.3 c0.5 -1 0.7 -2.4 0.5 -3 -0.7 -1.9 3.4 -1.6 4.1 0.3 0.7 1.7 -1.8 4.3 -4.2 4.4 -0.9 0 -1 -0.5 -0.4 -1.7z"/>
  <path d="M252.3 202.5 c0 -3.3 0.2 -4.5 0.4 -2.7 0.2 1.8 0.2 4.5 0 6 -0.2 1.5 -0.4 0 -0.4 -3.3z"/>
  <path d="M118.8 203.8 c-0.3 -1.5 -0.4 -2.8 -0.3 -2.8 0.6 0 9.5 5.2 9.5 5.5 0 0.2 -2 0.3 -4.4 0.2 -4 -0.1 -4.5 -0.4 -4.8 -2.9z"/>
  <path d="M255.3 202 c0 -3 0.2 -4.3 0.4 -2.7 0.2 1.5 0.2 3.9 0 5.5 -0.2 1.5 -0.4 0.2 -0.4 -2.8z"/>
  <path d="M358 206.2 c0 -0.8 5.1 -4.1 8.2 -5.4 2.6 -1.1 2.4 3.8 -0.1 5.2 -2.3 1.2 -8.1 1.4 -8.1 0.2z"/>
  <path d="M103 194 c0 -2 0.1 -2 2.8 -0.3 1.5 0.9 2.9 1.8 3.1 2 0.2 0.2 -1 0.3 -2.7 0.3 -2.5 0 -3.2 -0.4 -3.2 -2z"/>
  <path d="M316.3 190.5 c0 -3.3 0.2 -4.5 0.4 -2.7 0.2 1.8 0.2 4.5 0 6 -0.2 1.5 -0.4 0 -0.4 -3.3z"/>
  <path d="M378.6 194.5 c0.4 -0.8 0.9 -1.5 1.3 -1.5 0.4 0 0.8 0.7 0.8 1.5 0 0.8 -0.6 1.5 -1.3 1.5 -0.8 0 -1.1 -0.6 -0.8 -1.5z"/>
  <path d="M139.2 189.2 c-2.1 -1.7 -2.1 -1.8 -0.3 -2.9 1.7 -1.1 1.9 -0.9 2.3 1.8 0.3 1.6 0.4 2.9 0.4 2.9 -0.1 0 -1.1 -0.8 -2.4 -1.8z"/>
  <path d="M342 189 c0 -1.5 0.6 -1.9 2.5 -1.8 1.4 0.1 2.5 0.3 2.5 0.4 0 0.1 -1.1 0.9 -2.5 1.8 -2.4 1.6 -2.5 1.6 -2.5 -0.4z"/>
  <path d="M349.3 186.3 c0.4 -0.6 0.1 -1.4 -0.5 -1.6 -0.7 -0.3 0 -0.6 1.6 -0.6 1.6 -0.1 2.7 0 2.5 0.2 -0.2 0.1 -1.3 0.9 -2.3 1.7 -1.1 0.8 -1.7 1 -1.3 0.3z"/>
  <path d="M143.3 177 c0 -3.6 0.2 -5 0.4 -3.2 0.2 1.7 0.2 4.7 0 6.5 -0.2 1.7 -0.4 0.3 -0.4 -3.3z"/>
  <path d="M255.3 177 c0 -3.6 0.2 -5 0.4 -3.2 0.2 1.7 0.2 4.7 0 6.5 -0.2 1.7 -0.4 0.3 -0.4 -3.3z"/>
  <path d="M390 179.5 c0 -2.8 0.4 -3.5 2 -3.5 1.6 0 2 0.7 2 3.5 0 2.8 -0.4 3.5 -2 3.5 -1.6 0 -2 -0.7 -2 -3.5z"/>
  <path d="M123.3 179.8 c-4.8 -2.1 -5.6 -3.8 -1.8 -3.8 1.8 0 2.3 0.4 1.9 1.5 -0.8 2.1 1.3 1.9 2.5 -0.2 1.2 -2.3 2.3 -1.2 1.9 1.9 l-0.3 2.5 -4.2 -1.9z"/>
  <path d="M338 176.5 c0 -4 0.4 -5.5 1.4 -5.5 1 0 1.4 1.4 1.4 4.9 0 3.3 -0.5 5.2 -1.4 5.5 -1.1 0.4 -1.4 -0.7 -1.4 -4.9z"/>
  <path d="M252.3 176 c0 -3 0.2 -4.3 0.4 -2.7 0.2 1.5 0.2 3.9 0 5.5 -0.2 1.5 -0.4 0.2 -0.4 -2.8z"/>
  <path d="M358.4 179.5 c-0.9 -2.1 0.1 -3 3.5 -3.3 3.7 -0.3 3.4 1.9 -0.5 3.7 -2 0.9 -2.6 0.8 -3 -0.4z"/>
  <path d="M92.2 174.8 c0.1 -3.3 0.4 -3.8 2.5 -3.8 2.5 0 2.8 0.5 1.3 2.3 -0.6 0.7 -1.7 2.1 -2.5 3.2 -1.3 1.9 -1.4 1.8 -1.3 -1.7z"/>
  <path d="M116.4 175.6 c-0.3 -0.8 -0.4 -2.3 -0.2 -3.3 0.3 -1.1 0.6 -0.6 0.9 1.5 0.6 3.4 0.2 4.2 -0.7 1.8z"/>
  <path d="M387.3 173.5 c-1.7 -1.9 -1.6 -2.5 0.2 -2.5 0.8 0 1.5 0.9 1.5 2 0 2.3 -0.1 2.4 -1.7 0.5z"/>
  <path d="M316.3 162 c0 -2.5 0.2 -3.5 0.4 -2.2 0.2 1.2 0.2 3.2 0 4.5 -0.2 1.2 -0.4 0.2 -0.4 -2.3z"/>
  <path d="M262 163.1 c0 -2.1 1.3 -4.1 2.6 -4.1 0.8 0 1.4 -0.4 1.4 -0.9 0 -0.6 1.8 -0.9 4 -0.9 2.2 0 3.7 0.4 3.4 0.9 -0.3 0.5 -2.1 0.9 -4 0.9 -3 0 -3.4 0.3 -3.4 2.5 0 1.8 -0.5 2.5 -2 2.5 -1.1 0 -2 -0.4 -2 -0.9z"/>
  <path d="M209 158 c0 -1.3 6 -1.7 7.7 -0.5 1.2 0.9 0.7 1.2 -3.1 1.2 -2.5 0.1 -4.6 -0.3 -4.6 -0.7z"/>
  <path d="M337.2 153.1 c-1.2 -3.3 -0.7 -4.1 2 -4.1 1.4 0 1.8 0.8 1.8 3.5 0 4.4 -2.4 4.7 -3.8 0.6z"/>
  <path d="M276 153.6 c0 -1 0.9 -2 2 -2.3 1.1 -0.3 2 -0.9 2 -1.4 0 -0.5 0.5 -0.9 1 -0.9 0.6 0 1 0.9 1 2 0 1.3 -0.7 2 -1.8 2 -1 0 -2.3 0.5 -3 1.2 -0.9 0.9 -1.2 0.8 -1.2 -0.6z"/>
  <path d="M199 150.6 c0 -1.9 0.4 -2.3 2 -1.9 1.1 0.3 2 0.9 2 1.4 0 0.5 0.6 0.9 1.4 0.9 0.8 0 1.8 0.5 2.1 1 0.4 0.6 -1 1 -3.4 1 -3.7 0 -4.1 -0.3 -4.1 -2.4z"/>
  <path d="M145.4 148.3 l0.1 -3.8 4.8 -0.1 c5.2 -0.1 6.2 1 2 2.1 -1.5 0.3 -3.7 1.8 -4.8 3.1 l-2.2 2.6 0.1 -3.9z"/>
  <path d="M334 148.3 c0 -0.6 -1.1 -1.4 -2.5 -1.7 -3.1 -0.8 -2.3 -2.6 1.1 -2.6 2.8 0 4.3 2.5 2.5 4.3 -0.8 0.8 -1.1 0.8 -1.1 0z"/>
  <path d="M183 137 c0 -6.3 1.5 -8.5 1.7 -2.5 0.1 2.3 0.9 4.3 2.2 5.4 2.8 2.5 2.6 3.1 -0.9 3.1 l-3 0 0 -6z"/>
  <path d="M295 142.4 c0 -0.3 0.7 -1.2 1.5 -2 1.3 -1.4 1.5 -1.3 1.5 0.5 0 1.2 -0.6 2.1 -1.5 2.1 -0.8 0 -1.5 -0.3 -1.5 -0.6z"/>
  <path d="M217.5 134.9 l-3 -1.9 3.3 0 c2.5 0 3.2 0.4 3.2 2 0 1.1 -0.1 2 -0.2 1.9 -0.2 0 -1.6 -0.9 -3.3 -2z"/>
  <path d="M262.2 135.2 c0.2 -0.9 1.4 -1.9 2.8 -2.1 1.4 -0.1 2.8 -0.8 3.1 -1.3 0.4 -0.6 1.3 -0.8 2 -0.6 0.7 0.2 -0.9 1.6 -3.5 3.1 -4 2.2 -4.7 2.4 -4.4 0.9z"/>
  <path d="M208.5 130 c-0.4 -0.6 -3.2 -2.4 -6.3 -4 l-5.7 -2.9 5.3 -0.1 c4.7 0 5.2 0.2 5.2 2.2 0 1.2 0.7 3 1.7 4 0.9 1 1.3 1.8 1 1.8 -0.3 0 -0.9 -0.5 -1.2 -1z"/>
  <path d="M252.3 122.5 c0 -3.3 0.2 -4.5 0.4 -2.7 0.2 1.8 0.2 4.5 0 6 -0.2 1.5 -0.4 0 -0.4 -3.3z"/>
  <path d="M255.3 122 c0 -3 0.2 -4.3 0.4 -2.7 0.2 1.5 0.2 3.9 0 5.5 -0.2 1.5 -0.4 0.2 -0.4 -2.8z"/>
  <path d="M278.7 126.3 c-1.8 -1.7 -0.4 -3 3.6 -3.1 l4.2 -0.2 -3.3 2 c-3.7 2.3 -3.6 2.2 -4.5 1.3z"/>
  <path d="M231.1 97.4 l-0.1 -7.1 4.8 0 c2.6 0 3.7 0.2 2.6 0.4 -3.3 0.6 -5.5 3.6 -6.4 9 -0.8 4.8 -0.8 4.8 -0.9 -2.3z"/>
  <path d="M255 102 c0 -0.5 -0.7 -1 -1.5 -1 -0.8 0 -1.5 -0.6 -1.5 -1.4 0 -0.8 -0.3 -2.1 -0.6 -2.9 -0.4 -1.1 0.1 -1.3 1.9 -1 1.9 0.4 2.4 1.1 2.5 3.9 0.1 1.9 -0.1 3.4 -0.3 3.4 -0.3 0 -0.5 -0.4 -0.5 -1z"/>
  <path d="M246 91.4 l-2.5 -1.4 3.3 0 c2.2 0 3.2 0.5 3.2 1.5 0 1.8 -0.7 1.8 -4 -0.1z"/>
 </g>
 <g fill="#d1dced">
  <path d="M231.3 415.5 c0 -3.3 0.2 -4.5 0.4 -2.7 0.2 1.8 0.2 4.5 0 6 -0.2 1.5 -0.4 0 -0.4 -3.3z"/>
  <path d="M231.3 389 c0 -4.7 0.2 -6.6 0.4 -4.2 0.2 2.3 0.2 6.1 0 8.5 -0.2 2.3 -0.4 0.4 -0.4 -4.3z"/>
  <path d="M298.2 387 c0 -1.9 0.2 -2.7 0.5 -1.7 0.2 0.9 0.2 2.5 0 3.5 -0.3 0.9 -0.5 0.1 -0.5 -1.8z"/>
  <path d="M317.4 349 c0 -9.6 0.2 -13.6 0.3 -8.7 0.2 4.8 0.2 12.6 0 17.5 -0.1 4.8 -0.3 0.8 -0.3 -8.8z"/>
  <path d="M143.9 344.3 c0 -5.4 -0.2 -11 -0.4 -12.5 -0.2 -1.6 0.1 -2.8 0.6 -2.8 0.5 0 0.9 5.4 0.9 12.5 0 6.9 -0.2 12.5 -0.5 12.5 -0.3 0 -0.5 -4.4 -0.6 -9.7z"/>
  <path d="M231.3 337.5 c0 -4.4 0.2 -6.1 0.4 -3.7 0.2 2.3 0.2 5.9 0 8 -0.2 2 -0.4 0.1 -0.4 -4.3z"/>
  <path d="M231.3 310 c0 -4.1 0.2 -5.8 0.4 -3.7 0.2 2 0.2 5.4 0 7.5 -0.2 2 -0.4 0.3 -0.4 -3.8z"/>
  <path d="M230.6 288.3 c-0.3 -1 -0.9 -2.4 -1.2 -3 -0.3 -0.8 0.1 -1.3 1 -1.3 1.1 0 1.6 0.9 1.6 3 0 3.4 -0.5 3.8 -1.4 1.3z"/>
  <path d="M97 282.9 c0 -1.3 0.5 -3.1 1 -3.9 0.7 -1.1 0.8 -0.5 0.4 2 -0.8 4.3 -1.4 5.1 -1.4 1.9z"/>
  <path d="M371.9 272.7 c0.5 -0.5 1.9 -0.7 3.2 -0.5 2 0.3 1.9 0.5 -0.9 0.9 -2 0.3 -2.9 0.2 -2.3 -0.4z"/>
  <path d="M231.3 227 c0 -2.5 0.2 -3.5 0.4 -2.2 0.2 1.2 0.2 3.2 0 4.5 -0.2 1.2 -0.4 0.2 -0.4 -2.3z"/>
  <path d="M231.3 204.5 c0 -4.4 0.2 -6.1 0.4 -3.7 0.2 2.3 0.2 5.9 0 8 -0.2 2 -0.4 0.1 -0.4 -4.3z"/>
  <path d="M168.2 206.1 c-1.1 -0.6 -1 -1 0.4 -1.5 2 -0.8 3.2 0 1.8 1.4 -0.5 0.5 -1.5 0.5 -2.2 0.1z"/>
  <path d="M317.4 175.5 c0 -12.1 0.2 -16.9 0.3 -10.7 0.2 6.2 0.2 16.1 0 22 -0.1 5.9 -0.3 0.8 -0.3 -11.3z"/>
  <path d="M143.8 183.3 c0.4 -15.6 0.8 -17.1 1 -4 0.1 7 -0.1 12.7 -0.5 12.7 -0.5 0 -0.7 -3.9 -0.5 -8.7z"/>
  <path d="M231.3 176.5 c0 -4.4 0.2 -6.1 0.4 -3.7 0.2 2.3 0.2 5.9 0 8 -0.2 2 -0.4 0.1 -0.4 -4.3z"/>
  <path d="M379.3 170.3 c0.9 -0.2 2.5 -0.2 3.5 0 0.9 0.3 0.1 0.5 -1.8 0.5 -1.9 0 -2.7 -0.2 -1.7 -0.5z"/>
  <path d="M231.3 124.5 c0 -4.4 0.2 -6.1 0.4 -3.7 0.2 2.3 0.2 5.9 0 8 -0.2 2 -0.4 0.1 -0.4 -4.3z"/>
 </g>
 <g fill="#3e4684">
  <path d="M235.4 427.6 l-3.4 -3.4 0 -23.1 c0 -12.7 -0.4 -23.1 -0.8 -23.1 -0.4 0 -1.2 0.4 -1.7 0.9 -1.1 1 -5.8 3.7 -16.5 9.4 -4.1 2.2 -8.8 4.9 -10.3 6 -1.6 1.1 -4.8 2.2 -7.1 2.4 -3.7 0.5 -4.8 0.1 -7.6 -2.4 -2.8 -2.5 -3.3 -3.6 -3.3 -7.3 0 -3.9 0.5 -4.8 3.8 -7.7 2.1 -1.8 4.4 -3.3 5.2 -3.3 0.7 0 1.3 -0.4 1.3 -0.9 0 -0.5 0.8 -1.1 1.8 -1.4 1.5 -0.5 6.2 -3.1 17.7 -9.7 2.2 -1.3 5.8 -3.3 8 -4.4 2.2 -1.2 4.2 -2.3 4.5 -2.6 0.3 -0.3 1.4 -1 2.5 -1.6 1.9 -1.1 2 -2.3 2.3 -39.2 l0.2 -38.2 -3.2 1.9 c-1.8 1 -8.9 5.1 -15.8 9.1 -6.9 4 -15 8.6 -18 10.3 -3 1.6 -5.9 3.3 -6.5 3.7 -1 0.8 -5.5 3.3 -13 7.3 -2.2 1.2 -4.2 2.4 -4.5 2.7 -0.3 0.3 -1.7 1.1 -3.2 1.9 l-2.8 1.4 0 26.2 0 26.2 -2.5 2.6 c-4.4 4.3 -10.6 4.3 -15 0 l-2.5 -2.6 0 -19.8 c0 -11 -0.3 -19.9 -0.7 -19.9 -0.5 0 -2.4 1 -4.3 2.2 -1.9 1.2 -5.3 3.2 -7.5 4.3 -4.3 2.3 -7.9 4.4 -16.3 9.4 -2.9 1.7 -5.7 3.1 -6.2 3.1 -0.6 0 -1 0.4 -1 1 0 1.9 -6.7 2.2 -10.3 0.5 -6.2 -2.9 -7.6 -10.3 -2.9 -15.2 2.7 -2.9 14.4 -10.3 16.3 -10.3 0.5 0 0.9 -0.4 0.9 -0.9 0 -0.5 0.8 -1.1 1.7 -1.4 1 -0.4 3.6 -1.7 5.8 -3 2.2 -1.3 5.9 -3.5 8.2 -4.8 4.8 -2.7 5.4 -4 2.7 -5.4 -1.1 -0.5 -8.5 -5 -16.6 -9.8 -15.7 -9.5 -17.6 -11.5 -16.4 -17.9 1.9 -9.6 10.4 -10.3 23.1 -1.8 2.2 1.5 5.8 3.7 8 4.9 2.2 1.2 5.8 3.3 8 4.6 2.2 1.4 4.7 2.8 5.5 3.2 0.8 0.3 3.4 1.9 5.7 3.5 2.3 1.5 4.9 2.8 5.8 2.8 1.9 0 9.8 -4 10.3 -5.2 0.2 -0.5 0.8 -0.8 1.3 -0.8 0.5 0 5.4 -2.7 10.9 -6 5.5 -3.3 10.3 -6 10.6 -6 0.3 0 1.8 -0.8 3.2 -1.9 2.8 -1.9 6.7 -4.2 16.2 -9.4 3 -1.7 6.6 -3.8 8 -4.7 1.4 -0.9 3.3 -2 4.3 -2.3 1.7 -0.6 2.4 -2.7 0.9 -2.7 -0.5 0 -3.5 -1.6 -6.8 -3.6 -5.9 -3.6 -10.6 -6.3 -24.4 -13.9 -4.1 -2.3 -9.9 -5.6 -12.8 -7.3 -2.9 -1.8 -5.7 -3.2 -6.2 -3.2 -0.6 0 -1 -0.3 -1 -0.8 0 -0.4 -1.5 -1.3 -3.2 -2.1 -1.8 -0.8 -4.5 -2.3 -6 -3.3 -1.5 -1.1 -3.6 -2 -4.5 -2 -1 -0.1 -7.1 3.1 -13.7 7 -6.5 4 -12.1 7.2 -12.3 7.2 -0.2 0 -2.3 1.3 -4.6 2.8 -5.7 3.9 -14.7 8.2 -16.9 8.2 -2.8 0 -7.6 -2.7 -8.8 -4.9 -2.5 -4.8 0.5 -14.1 4.6 -14.1 0.8 0 1.4 -0.4 1.4 -0.9 0 -0.5 0.8 -1.1 1.8 -1.4 2.3 -0.8 7.6 -4 8 -4.9 0.2 -0.5 0.8 -0.8 1.4 -0.8 0.5 0 2.9 -1.4 5.3 -3 2.4 -1.7 4.6 -3 4.9 -3 0.4 0 2.2 -1 4.1 -2.2 3.4 -2.2 4.5 -3.8 2.6 -3.8 -0.5 0 -3.9 -1.8 -7.5 -4 -3.6 -2.2 -7 -4 -7.6 -4 -0.5 0 -1 -0.3 -1 -0.8 0 -0.4 -1.4 -1.3 -3 -2.1 -6.4 -2.8 -17.9 -10.2 -19.4 -12.6 -2.7 -4.1 -1.8 -9.4 2.2 -13.5 1.8 -1.7 10.3 -2 12.4 -0.3 0.7 0.6 3 2 5 3.2 2.1 1.2 5.4 3 7.3 4.1 1.9 1.1 5.1 2.9 7 4 1.9 1.1 5.2 3 7.3 4.1 2 1.2 4.6 2.8 5.7 3.5 1.1 0.8 2.3 1.4 2.7 1.4 0.5 0 0.8 -8.9 0.8 -19.7 0 -19.6 0 -19.8 2.5 -22.7 3.6 -4.2 10 -4.8 14.3 -1.1 l3.2 2.7 0 26.8 c0 25.2 0.1 26.9 1.8 27.4 1 0.4 4.5 2.2 7.8 4.2 3.2 2 8.2 4.8 10.9 6.3 2.8 1.6 6.6 3.7 8.6 4.9 2 1.1 4.7 2.6 6 3.4 1.3 0.7 2.6 1.5 2.9 1.8 0.3 0.3 1.9 1.2 3.5 2 1.7 0.8 4.1 2.2 5.5 3.1 2.3 1.6 4.2 2.6 13.8 8 2 1.2 4.3 2.6 5 3.1 0.9 0.8 1.2 -6.8 1.2 -37.6 0 -35.9 -0.1 -38.7 -1.7 -39.3 -1 -0.4 -6.1 -3.2 -11.3 -6.2 -5.2 -3.1 -10.8 -6.3 -12.5 -7.1 -1.6 -0.8 -3.2 -1.7 -3.5 -2 -0.3 -0.3 -3.4 -2.1 -7 -4 -9.3 -4.8 -11.3 -7.2 -11.2 -12.8 0 -3.9 0.5 -5.1 3.1 -7.4 1.8 -1.6 4.3 -2.8 5.9 -2.8 2.5 0 4.6 1 16.7 7.9 2.2 1.3 5.8 3.3 8 4.4 2.2 1.2 4.2 2.4 4.5 2.7 0.3 0.3 2.4 1.5 4.8 2.7 l4.2 2.2 0 -22.9 0 -22.8 2.5 -3 c1.4 -1.7 3.9 -3.3 5.5 -3.7 3.3 -0.7 9.4 1.7 10.7 4.3 0.4 0.9 1 11.9 1.3 24.4 l0.5 22.8 4.9 -2.5 c2.6 -1.3 5.3 -2.8 6 -3.3 0.6 -0.5 3.7 -2.3 6.9 -4.1 3.1 -1.7 8.1 -4.4 11.1 -6.1 3 -1.6 6.6 -3 8.1 -3 3.3 0 8.5 4.9 8.6 8.2 0.4 7.5 -1.2 9.6 -11.1 14.8 -3.6 1.9 -6.7 3.7 -7 4 -0.6 0.6 -8.5 4.9 -11.7 6.5 -1.3 0.5 -2.3 1.3 -2.3 1.8 0 0.4 -0.4 0.7 -0.9 0.7 -0.6 0 -3.7 1.6 -7 3.5 l-6.1 3.6 0 38.4 0 38.4 5.8 -3.1 c3.1 -1.7 6.2 -3.4 6.7 -3.8 0.6 -0.4 2.7 -1.7 4.8 -2.9 9.7 -5.5 11.4 -6.4 13.7 -8.1 1.4 -0.9 4 -2.3 5.8 -3.1 1.7 -0.8 3.2 -1.7 3.2 -2.1 0 -0.5 0.4 -0.8 1 -0.8 0.5 0 3.3 -1.4 6.2 -3.1 5.2 -3.1 9.3 -5.5 15.3 -8.9 l3 -1.7 0.3 -27.1 0.2 -27 3.2 -2.7 c2.7 -2.3 3.9 -2.6 7.4 -2.2 8.4 0.9 9.4 4 9.4 27.7 0 10.5 0.4 19 0.8 19 0.4 0 1.2 -0.4 1.7 -0.9 0.6 -0.5 2.7 -1.9 4.8 -3 5.6 -3.2 9.6 -5.5 15.5 -9 2.9 -1.7 5.7 -3.1 6.2 -3.1 0.6 0 1 -0.4 1 -1 0 -0.5 0.6 -1 1.3 -1 0.6 0 2.3 -0.9 3.7 -2 1.7 -1.3 4.1 -2 7.3 -2 6.7 0 9.7 3 9.7 9.8 0 6.2 -0.1 6.2 -17.7 16.3 -1.8 1.1 -4.8 2.7 -6.5 3.8 -1.8 1 -5.7 3.2 -8.6 5 -2.9 1.7 -5.7 3.1 -6.2 3.1 -1.7 0 -1.1 3 0.8 3.8 1 0.4 8.3 4.6 16.3 9.5 14.8 8.9 16.9 10.9 16.9 16.4 0 3.3 -6.2 9.3 -9.7 9.3 -2.7 0 -6.2 -1.7 -18 -8.7 -4 -2.4 -7.5 -4.3 -7.9 -4.3 -0.3 0 -2.5 -1.4 -4.9 -3 -2.4 -1.7 -4.8 -3 -5.4 -3 -0.6 0 -1.1 -0.3 -1.1 -0.7 0 -0.5 -2.3 -1.9 -5.1 -3.3 -4.3 -2.1 -5.3 -2.3 -7.1 -1.1 -2 1.3 -3.8 2.3 -15.3 8.6 -2.7 1.5 -5.4 3.1 -6 3.5 -1.1 0.9 -5.9 3.6 -15.5 8.8 -10 5.4 -10.5 5.7 -11 6.2 -0.3 0.3 -2.6 1.7 -5.3 3 -2.6 1.4 -5.7 3.3 -7 4.3 l-2.2 1.7 2.5 1.9 c1.4 1.1 4.1 2.8 6 3.9 6.6 3.6 11.5 6.4 14 8.2 1.4 0.9 5 3 8 4.7 3 1.7 7.9 4.4 10.8 6.2 2.9 1.7 5.7 3.1 6.2 3.1 0.6 0 1 0.5 1 1 0 0.6 0.5 1 1 1 0.6 0 4 1.8 7.6 4 3.6 2.2 7 4 7.5 4 1 0 4.5 -1.9 6.9 -3.6 0.8 -0.6 3.5 -2.3 6 -3.6 2.5 -1.4 6.1 -3.4 8.1 -4.6 2 -1.1 4.7 -2.6 6 -3.4 1.3 -0.7 2.6 -1.5 2.9 -1.8 0.7 -0.7 4.9 -3.1 10.3 -5.8 8.5 -4.3 15.3 -1.5 16.4 6.7 0.5 3.9 0.3 4.4 -3.6 8.1 -2.3 2.2 -4.8 4 -5.6 4 -0.8 0 -1.5 0.4 -1.5 0.9 0 0.5 -0.8 1.1 -1.7 1.5 -1 0.3 -3.1 1.4 -4.8 2.3 -1.6 1 -6.3 3.8 -10.3 6.2 -4 2.3 -7.2 4.7 -7 5.3 0.2 0.6 3.3 2.7 6.8 4.6 3.6 1.9 6.7 3.8 7 4.1 0.4 0.5 2.6 1.8 11.5 6.5 1.1 0.6 2.2 1.3 2.5 1.6 0.3 0.3 2.1 1.4 4 2.4 7.9 4.3 10.3 9.1 7.4 15.1 -2.6 5.6 -9.5 7.1 -15.9 3.5 -1.9 -1.1 -5.2 -2.9 -7.2 -4.1 -2.1 -1.2 -4.2 -2.5 -4.8 -2.9 -0.5 -0.4 -2.7 -1.7 -4.7 -2.9 -7.1 -4 -10.3 -5.8 -13.8 -7.9 -1.9 -1.2 -3.8 -2.2 -4.2 -2.2 -0.5 0 -0.8 8.7 -0.8 19.3 0 17.4 -0.2 19.5 -2 22.5 -3.5 5.8 -10.8 6.5 -15.7 1.6 -2.3 -2.3 -2.3 -2.4 -2.3 -28.7 0 -20 -0.3 -26.7 -1.2 -27.4 -0.7 -0.6 -3.3 -2.1 -5.8 -3.4 -2.5 -1.3 -4.7 -2.6 -5 -2.9 -0.3 -0.3 -1.6 -1.1 -2.9 -1.8 -6.1 -3.5 -9 -5.1 -13.9 -8.1 -2.9 -1.7 -5.4 -3.1 -5.6 -3.1 -0.2 0 -3.4 -1.8 -7 -4 -3.6 -2.2 -6.8 -4 -7 -4 -0.3 0 -4.1 -2.2 -8.6 -5 -4.5 -2.7 -8.3 -5 -8.6 -5 -0.2 0 -0.3 17.4 -0.2 38.6 l0.3 38.7 6.5 3.4 c3.6 1.9 9 4.9 12 6.7 3 1.8 7.5 4.5 10 5.8 11 6.1 12.6 7.1 14.8 9.1 3 2.8 3.1 10.3 0.2 13.5 -4.2 4.5 -9.5 4.2 -18.6 -1.1 -3.2 -1.9 -7.9 -4.6 -10.4 -5.9 -9.9 -5.5 -12.6 -7.1 -13.7 -8 -1 -0.8 -1.3 3.6 -1.3 21.5 0 14.8 -0.4 23.5 -1.1 25.1 -1.3 2.7 -6.4 5.6 -9.9 5.6 -1.2 0 -3.7 -1.5 -5.6 -3.4z"/>
 </g>
</svg>